# xmcd
#
# Track frame offsets:
# 150
# 15342
# 30490
# 46250
# 69157
# 84172
# 100615
# 116062
# 134105
# 150432
# 165612
# 177395
#
# Disc length: 2579 seconds
#
# Revision: 0
# Processed by: cddbd v1.4PL0 Copyright (c) Steve Scherf et al.
# Submitted via: Axialis_AX_CDPlayer 2.6
#
DISCID=870a110c
DTITLE=Aaron Springfield - House In The Country
DYEAR=1900
DGENRE=
TTITLE0=Go Now My Love
TTITLE1=Here And Now
TTITLE2=Country Man
TTITLE3=Already One
TTITLE4=In A Woman's Mind
TTITLE5=I'm Movin' On
TTITLE6=House In The Country
TTITLE7=Once Upon A Time
TTITLE8=The Easy Way Out
TTITLE9=I Am A Child
TTITLE10=This Little Girl Of Mine
TTITLE11=Julia
EXTD=
EXTT0=
EXTT1=
EXTT2=
EXTT3=
EXTT4=
EXTT5=
EXTT6=
EXTT7=
EXTT8=
EXTT9=
EXTT10=
EXTT11=
PLAYORDER=
